<svg width="187" height="40" viewBox="0 0 187 40" fill="none" xmlns="http://www.w3.org/2000/svg">
<path d="M62.0425 30.3031C60.6602 29.4459 59.583 28.2336 58.8186 26.6699C58.0502 25.1062 57.6564 23.2761 57.6294 21.1835C57.6564 19.1294 58.0502 17.3302 58.8186 15.7858C59.583 14.2415 60.6602 13.0446 62.0425 12.199C63.4286 11.3535 65.0347 10.9326 66.8648 10.9326C68.6949 10.9326 70.3281 11.3573 71.718 12.2106C73.108 13.06 74.1852 14.2608 74.9535 15.8052C75.7219 17.3495 76.1041 19.1449 76.1041 21.1835V21.8476L60.3591 21.809C60.4247 23.2491 60.7336 24.5116 61.2934 25.5888C61.8533 26.666 62.61 27.5 63.5714 28.0946C64.5328 28.6853 65.6293 28.9826 66.8648 28.9826C68.2934 28.9556 69.5443 28.5579 70.6177 27.7857C71.691 27.0135 72.4014 25.9827 72.7528 24.697H75.5597C75.2856 26.0599 74.7373 27.2606 73.9149 28.3031C73.0887 29.3417 72.0655 30.1525 70.8455 30.7278C69.6254 31.3069 68.2972 31.5965 66.8687 31.5965C65.0386 31.5965 63.4286 31.1679 62.0463 30.3108L62.0425 30.3031ZM73.1775 19.3534C72.9806 18.1719 72.5945 17.141 72.0192 16.2646C71.4439 15.3882 70.7103 14.7164 69.8262 14.2492C68.942 13.782 67.9536 13.5465 66.8648 13.5465C65.776 13.5465 64.8031 13.782 63.9112 14.2492C63.0193 14.7164 62.2857 15.3843 61.7104 16.2569C61.1313 17.1256 60.7452 18.1488 60.5521 19.3148L73.1775 19.3534Z" fill="#AE9D87"/>
<path d="M96.7216 11.4043L88.6174 31.1222H86.0846L77.9805 11.4043H80.9418L87.3703 27.1879L93.7988 11.4043H96.7216Z" fill="#AE9D87"/>
<path d="M103.007 30.3031C101.625 29.4459 100.548 28.2336 99.7834 26.6699C99.0151 25.1062 98.6213 23.2761 98.5942 21.1835C98.6213 19.1294 99.0151 17.3302 99.7834 15.7858C100.552 14.2415 101.625 13.0446 103.007 12.199C104.39 11.3535 106 10.9326 107.83 10.9326C109.66 10.9326 111.289 11.3573 112.683 12.2106C114.073 13.06 115.15 14.2608 115.918 15.8052C116.683 17.3495 117.069 19.1449 117.069 21.1835V21.8476L101.324 21.809C101.39 23.2491 101.702 24.5116 102.258 25.5888C102.818 26.666 103.575 27.5 104.536 28.0946C105.498 28.6853 106.594 28.9826 107.83 28.9826C109.258 28.9556 110.509 28.5579 111.579 27.7857C112.652 27.0135 113.362 25.9827 113.714 24.697H116.521C116.247 26.0599 115.698 27.2606 114.876 28.3031C114.05 29.3417 113.027 30.1525 111.806 30.7278C110.586 31.3069 109.258 31.5965 107.83 31.5965C106 31.5965 104.39 31.1679 103.007 30.3108V30.3031ZM114.142 19.3534C113.949 18.1719 113.559 17.141 112.984 16.2646C112.405 15.3882 111.675 14.7164 110.791 14.2492C109.907 13.782 108.922 13.5465 107.83 13.5465C106.737 13.5465 105.768 13.782 104.876 14.2492C103.984 14.7164 103.251 15.3843 102.675 16.2569C102.096 17.1256 101.71 18.1488 101.517 19.3148L114.142 19.3534Z" fill="#AE9D87"/>
<path d="M124.752 31.1218H121.945V11.4038H124.791V13.7436C125.571 12.8092 126.532 12.095 127.675 11.6008C128.818 11.1066 130.026 10.8865 131.3 10.9367V13.5853C129.961 13.5351 128.799 13.7938 127.814 14.3652C126.826 14.9366 126.069 15.786 125.544 16.9096C125.019 18.0331 124.756 19.3806 124.756 20.952V31.1218H124.752Z" fill="#AE9D87"/>
<path d="M139.134 2.43848V31.1216H136.327V2.43848H139.134Z" fill="#AE9D87"/>
<path d="M148.037 30.8591C147.003 30.3726 146.207 29.6815 145.651 28.7857C145.091 27.89 144.813 26.8514 144.813 25.6661C144.813 23.8592 145.458 22.4036 146.744 21.3032C148.03 20.199 149.883 19.5117 152.296 19.2376L155.725 18.8476C156.972 18.7048 157.817 18.4693 158.257 18.1449C158.18 15.1064 156.531 13.5851 153.308 13.5851C151.62 13.5851 150.335 13.9712 149.45 14.7434C148.566 15.5156 148.176 16.5851 148.281 17.948H145.474C145.462 17.8168 145.454 17.6353 145.454 17.4036C145.454 16.1179 145.783 14.9867 146.439 14.0137C147.095 13.0407 148.022 12.284 149.215 11.7435C150.408 11.2029 151.786 10.9365 153.346 10.9365C154.906 10.9365 156.338 11.2261 157.497 11.8052C158.651 12.3844 159.535 13.2184 160.145 14.3071C160.755 15.3998 161.06 16.7048 161.06 18.2222V31.1216H158.253V28.7819C157.485 29.6776 156.535 30.3687 155.4 30.8552C154.265 31.3417 153.006 31.5849 151.632 31.5849C150.257 31.5849 149.068 31.3417 148.037 30.8552V30.8591ZM155.257 28.1024C156.219 27.5194 156.96 26.6777 157.477 25.5773C157.999 24.4808 158.257 23.1835 158.257 21.6893V20.8322C157.022 21.1449 155.115 21.4152 152.528 21.6507C150.918 21.8592 149.694 22.2993 148.864 22.975C148.034 23.6507 147.617 24.5348 147.617 25.6236C147.617 26.7124 147.983 27.5309 148.717 28.1062C149.45 28.6854 150.501 28.9749 151.864 28.9749C153.227 28.9749 154.292 28.6815 155.254 28.0985L155.257 28.1024Z" fill="#AE9D87"/>
<path d="M181.373 12.2222C182.752 13.0794 183.817 14.2879 184.57 15.8477C185.323 17.4075 185.701 19.2106 185.701 21.2646C185.701 23.3187 185.323 25.1217 184.57 26.6815C183.817 28.2414 182.752 29.4499 181.373 30.307C179.995 31.1641 178.4 31.5927 176.582 31.5927C175.142 31.5927 173.837 31.3147 172.675 30.7664C171.512 30.2143 170.539 29.4113 169.759 28.3611V31.1294H167.03V2.44629H169.837V14.0987C170.578 13.0717 171.52 12.2879 172.663 11.7512C173.806 11.2107 175.111 10.9443 176.582 10.9443C178.4 10.9443 179.999 11.3728 181.373 12.23V12.2222ZM179.813 28.0059C180.786 27.3842 181.539 26.4924 182.064 25.3379C182.589 24.1835 182.852 22.8244 182.852 21.2646C182.852 19.7048 182.589 18.3496 182.064 17.1913C181.539 16.0369 180.786 15.145 179.813 14.5234C178.84 13.9018 177.698 13.589 176.385 13.589C175.072 13.589 173.945 13.9056 172.964 14.535C171.983 15.1643 171.223 16.06 170.686 17.2145C170.146 18.3728 169.879 19.7202 169.879 21.2685C169.879 22.8167 170.146 24.1835 170.678 25.3418C171.211 26.4962 171.968 27.3881 172.949 28.0097C173.929 28.6352 175.076 28.9441 176.389 28.9441C177.701 28.9441 178.844 28.6313 179.817 28.0097L179.813 28.0059Z" fill="#AE9D87"/>
<path d="M28.2434 11.539C27.4944 7.87104 27.1083 5.42705 27.5793 2.95218C27.6102 2.78229 27.6488 2.61627 27.6874 2.44639C32.0194 4.37301 35.5059 7.84015 37.4557 12.1606C37.3205 12.1915 37.1893 12.2262 37.0541 12.2532C34.6063 12.7281 31.9615 12.2996 28.2434 11.539ZM2.70702 27.8129C2.54099 27.8477 2.37883 27.8863 2.21281 27.9287C4.15102 32.2878 7.65677 35.7974 12.0158 37.7356C12.0737 37.5232 12.1316 37.307 12.1741 37.0908C12.6529 34.7433 12.2204 32.0484 11.5061 28.5272C8.05445 27.8284 5.05834 27.338 2.70702 27.809V27.8129ZM38.6487 15.6779C38.3553 15.7551 38.058 15.8246 37.7607 15.8825C33.4905 16.7088 29.0542 15.4694 24.8844 14.6161C22.4713 14.1219 19.7956 13.4579 17.3208 13.7474C17.0544 13.7822 16.7995 13.8246 16.5601 13.8903C16.5601 13.8903 16.5486 13.8903 16.5447 13.8903C16.2049 13.9791 15.8922 14.0988 15.6104 14.2455C15.0505 14.5389 14.5718 14.9829 14.2629 15.4964C14.1084 15.7513 13.981 16.0447 13.8884 16.3613C13.8729 16.4038 13.8613 16.4462 13.8498 16.4887C13.7378 16.8941 13.676 17.3536 13.649 17.8864C13.6181 18.4385 13.6374 19.0524 13.6992 19.7667C13.7571 20.4732 13.8575 21.23 14.0081 22.1489C14.1162 22.7744 14.2359 23.4462 14.3903 24.2184L13.7108 24.0794C13.3285 24.0021 12.9579 23.9249 12.5872 23.8477C12.2011 23.7666 11.8112 23.6894 11.4328 23.616C11.1123 23.5504 10.7919 23.4886 10.4791 23.4307C10.4367 23.1991 10.4019 22.9713 10.3633 22.7551C10.1934 21.7396 10.0815 20.8902 10.012 20.0871C9.9386 19.2068 9.91543 18.4269 9.95404 17.7088C9.99265 16.9134 10.093 16.2069 10.2706 15.5428C10.4598 14.8324 10.7378 14.176 11.0892 13.5891C11.7533 12.4926 12.7146 11.5891 13.8806 10.9791C14.7687 10.5081 15.7764 10.2069 16.8845 10.0757C18.2011 9.92121 19.4752 10.0255 20.6528 10.1567C21.4134 10.2417 22.2203 10.3575 23.1122 10.5158C23.4944 10.5814 23.8883 10.6548 24.3091 10.7359C23.6991 7.50425 23.4249 4.97532 23.9423 2.26106C24.0041 1.93288 24.0813 1.60856 24.1624 1.27652C22.7763 0.959919 21.3323 0.790039 19.8458 0.790039C9.18571 0.790039 0.541016 9.43087 0.541016 20.0948C0.541016 21.2145 0.641403 22.3072 0.826729 23.3767C0.884643 23.728 0.954139 24.0755 1.03908 24.4191C1.34796 24.3303 1.66069 24.2492 1.97343 24.1875C2.01976 24.1759 2.07382 24.1682 2.12015 24.1604C6.44057 23.4964 10.7147 24.6045 14.927 25.4654C17.3208 25.9519 19.9655 26.6083 22.4211 26.3187C22.7029 26.284 22.9693 26.2376 23.2164 26.172C23.228 26.172 23.2396 26.172 23.2512 26.1643C23.5717 26.0755 23.8728 25.9597 24.1392 25.8207C24.6991 25.5234 25.1778 25.0832 25.4867 24.5697C25.645 24.3072 25.7763 24.0099 25.8689 23.6778C25.8805 23.6431 25.8921 23.6122 25.8998 23.5774C26.0118 23.1682 26.0736 22.7126 26.1006 22.1798C26.1276 21.6276 26.1122 21.0138 26.0504 20.2995C25.9886 19.5929 25.8921 18.8362 25.7377 17.9173C25.6334 17.2879 25.5137 16.62 25.3554 15.8517L26.1083 16.0061C26.4597 16.0795 26.8071 16.1489 27.1469 16.2223C27.5369 16.3034 27.923 16.3806 28.3013 16.4578C28.6334 16.5235 28.9538 16.5852 29.2704 16.647C29.3129 16.8748 29.3515 17.0987 29.3863 17.315C29.5561 18.3304 29.6643 19.1759 29.7338 19.9829C29.811 20.8632 29.8303 21.6392 29.7955 22.3612C29.7569 23.1566 29.6527 23.8631 29.4789 24.5272C29.2897 25.2376 29.0156 25.8979 28.6565 26.4847C27.9925 27.5813 27.0311 28.4809 25.8689 29.0948C24.9809 29.5619 23.9693 29.8669 22.8612 29.9944C21.5485 30.1488 20.2744 30.0484 19.0929 29.9171C18.3362 29.8322 17.5331 29.7164 16.6335 29.5581C16.2513 29.4924 15.8575 29.4191 15.4327 29.338C16.0428 32.5658 16.3324 35.2067 15.7995 37.8321C15.7262 38.195 15.6374 38.5541 15.5293 38.9132C16.9231 39.2336 18.3671 39.4074 19.8574 39.4074C30.5175 39.4074 39.1622 30.7627 39.1622 20.1026C39.1622 18.5813 38.9808 17.1065 38.6487 15.6856V15.6779Z" fill="#AE9D87"/>
</svg>
