<svg width="40" height="40" viewBox="0 0 40 40" fill="none" xmlns="http://www.w3.org/2000/svg">
<path d="M28.2434 11.539C27.4944 7.87104 27.1083 5.42705 27.5793 2.95218C27.6102 2.78229 27.6488 2.61627 27.6874 2.44639C32.0194 4.37301 35.5059 7.84015 37.4557 12.1606C37.3205 12.1915 37.1893 12.2262 37.0541 12.2532C34.6063 12.7281 31.9615 12.2996 28.2434 11.539ZM2.70702 27.8129C2.54099 27.8477 2.37883 27.8863 2.21281 27.9287C4.15102 32.2878 7.65677 35.7974 12.0158 37.7356C12.0737 37.5232 12.1316 37.307 12.1741 37.0908C12.6529 34.7433 12.2204 32.0484 11.5061 28.5272C8.05445 27.8284 5.05834 27.338 2.70702 27.809V27.8129ZM38.6487 15.6779C38.3553 15.7551 38.058 15.8246 37.7607 15.8825C33.4905 16.7088 29.0542 15.4694 24.8844 14.6161C22.4713 14.1219 19.7956 13.4579 17.3208 13.7474C17.0544 13.7822 16.7995 13.8246 16.5601 13.8903C16.5601 13.8903 16.5486 13.8903 16.5447 13.8903C16.2049 13.9791 15.8922 14.0988 15.6104 14.2455C15.0505 14.5389 14.5718 14.9829 14.2629 15.4964C14.1084 15.7513 13.981 16.0447 13.8884 16.3613C13.8729 16.4038 13.8613 16.4462 13.8498 16.4887C13.7378 16.8941 13.676 17.3536 13.649 17.8864C13.6181 18.4385 13.6374 19.0524 13.6992 19.7667C13.7571 20.4732 13.8575 21.23 14.0081 22.1489C14.1162 22.7744 14.2359 23.4462 14.3903 24.2184L13.7108 24.0794C13.3285 24.0021 12.9579 23.9249 12.5872 23.8477C12.2011 23.7666 11.8112 23.6894 11.4328 23.616C11.1123 23.5504 10.7919 23.4886 10.4791 23.4307C10.4367 23.1991 10.4019 22.9713 10.3633 22.7551C10.1934 21.7396 10.0815 20.8902 10.012 20.0871C9.9386 19.2068 9.91543 18.4269 9.95404 17.7088C9.99265 16.9134 10.093 16.2069 10.2706 15.5428C10.4598 14.8324 10.7378 14.176 11.0892 13.5891C11.7533 12.4926 12.7146 11.5891 13.8806 10.9791C14.7687 10.5081 15.7764 10.2069 16.8845 10.0757C18.2011 9.92121 19.4752 10.0255 20.6528 10.1567C21.4134 10.2417 22.2203 10.3575 23.1122 10.5158C23.4944 10.5814 23.8883 10.6548 24.3091 10.7359C23.6991 7.50425 23.4249 4.97532 23.9423 2.26106C24.0041 1.93288 24.0813 1.60856 24.1624 1.27652C22.7763 0.959919 21.3323 0.790039 19.8458 0.790039C9.18571 0.790039 0.541016 9.43087 0.541016 20.0948C0.541016 21.2145 0.641403 22.3072 0.826729 23.3767C0.884643 23.728 0.954139 24.0755 1.03908 24.4191C1.34796 24.3303 1.66069 24.2492 1.97343 24.1875C2.01976 24.1759 2.07382 24.1682 2.12015 24.1604C6.44057 23.4964 10.7147 24.6045 14.927 25.4654C17.3208 25.9519 19.9655 26.6083 22.4211 26.3187C22.7029 26.284 22.9693 26.2376 23.2164 26.172C23.228 26.172 23.2396 26.172 23.2512 26.1643C23.5717 26.0755 23.8728 25.9597 24.1392 25.8207C24.6991 25.5234 25.1778 25.0832 25.4867 24.5697C25.645 24.3072 25.7763 24.0099 25.8689 23.6778C25.8805 23.6431 25.8921 23.6122 25.8998 23.5774C26.0118 23.1682 26.0736 22.7126 26.1006 22.1798C26.1276 21.6276 26.1122 21.0138 26.0504 20.2995C25.9886 19.5929 25.8921 18.8362 25.7377 17.9173C25.6334 17.2879 25.5137 16.62 25.3554 15.8517L26.1083 16.0061C26.4597 16.0795 26.8071 16.1489 27.1469 16.2223C27.5369 16.3034 27.923 16.3806 28.3013 16.4578C28.6334 16.5235 28.9538 16.5852 29.2704 16.647C29.3129 16.8748 29.3515 17.0987 29.3863 17.315C29.5561 18.3304 29.6643 19.1759 29.7338 19.9829C29.811 20.8632 29.8303 21.6392 29.7955 22.3612C29.7569 23.1566 29.6527 23.8631 29.4789 24.5272C29.2897 25.2376 29.0156 25.8979 28.6565 26.4847C27.9925 27.5813 27.0311 28.4809 25.8689 29.0948C24.9809 29.5619 23.9693 29.8669 22.8612 29.9944C21.5485 30.1488 20.2744 30.0484 19.0929 29.9171C18.3362 29.8322 17.5331 29.7164 16.6335 29.5581C16.2513 29.4924 15.8575 29.4191 15.4327 29.338C16.0428 32.5658 16.3324 35.2067 15.7995 37.8321C15.7262 38.195 15.6374 38.5541 15.5293 38.9132C16.9231 39.2336 18.3671 39.4074 19.8574 39.4074C30.5175 39.4074 39.1622 30.7627 39.1622 20.1026C39.1622 18.5813 38.9808 17.1065 38.6487 15.6856V15.6779Z" fill="#AE9D87"/>
</svg>
